<svg id="Layer_1" data-name="Layer 1" xmlns="http://www.w3.org/2000/svg" viewBox="0 0 1580.19 452.99"><defs><style>.cls-1,.cls-2{fill:#dc4c3a;}.cls-2{font-size:453px;font-family:Bebas-Regular, Bebas;}</style></defs><path class="cls-1" d="M582.92,390.33c-34-46.16-48.6-97.42-42.29-154.06,6-53.76,29.49-99.12,69.55-135.32A213.58,213.58,0,0,1,883.36,89c47,35.86,75.26,83.33,83.38,142s-6.43,111.6-41.53,159.39c75.07,15.57,148.93,34.52,220.3,62.35L1135,450.83c-3.52-.61-7-1.23-10.57-1.81-18.46-3.09-36.91-6.24-55.39-9.21q-28.33-4.56-56.71-8.81-20.75-3.09-41.55-5.7c-16.26-2.07-32.53-4.07-48.83-5.83-11.84-1.28-23.7-2.37-35.58-3.14-17.62-1.15-35.26-1.95-52.89-2.9-.55,0-1.11-.11-2.35-.23,39.91-21.26,68.18-52.3,83.49-94.27s14-83.91-3.13-125c-28.29-67.81-97.91-109.91-171-104A171.41,171.41,0,0,0,588.31,218.42c-19.23,75.86,15.34,157,88.72,194.82-2.2.16-3.86.31-5.53.39-14.81.73-29.63,1.3-44.42,2.22-10.05.62-20.09,1.61-30.11,2.64-14.73,1.51-29.46,3.1-44.17,4.86q-19.57,2.36-39.1,5.16-26.19,3.74-52.33,7.77c-19.07,3-38.11,6.1-57.15,9.25-12.88,2.14-25.74,4.45-38.61,6.67a3.33,3.33,0,0,1-1.78-.12C434.79,424.63,508.22,405.86,582.92,390.33Z"/><text class="cls-2" transform="translate(0 385.05)">BIG</text><text class="cls-2" transform="translate(1006.26 385.05)">POS</text></svg>